# xmcd
# 
# Track frame offsets:
#     150
#     23375
#     40155
#     60792
#     80265
#     98595
#     116030
#     118557
#     130995
#     145475
#     154862
#     181137
# 
# Disc length: 2631
# 
# Revision: 2
# Processed by: cddbd v1.5.2PL0 Copyright (c) Steve Scherf et al.
# Submitted via: fre:ac v1.0.27
# 
DISCID=8d0a450c
DTITLE=The Waterboys - Dream Harder
DYEAR=1993
DGENRE=Folk-influenced IRE/UK Rock
TTITLE0=The New Life
TTITLE1=Glastonbury Song
TTITLE2=Preparing to Fly
TTITLE3=The Return of Pan
TTITLE4=Corn Circles
TTITLE5=Suffer
TTITLE6=Winter Winter
TTITLE7=Love and Death
TTITLE8=Spiritual City
TTITLE9=Wonders of Lewis
TTITLE10=The Return of Jimi Hendrix
TTITLE11=Good News
EXTD=
EXTT0=
EXTT1=
EXTT2=
EXTT3=
EXTT4=
EXTT5=
EXTT6=
EXTT7=
EXTT8=
EXTT9=
EXTT10=
EXTT11=
PLAYORDER=
